<svg width="11" height="13" viewBox="0 0 11 13" fill="none" xmlns="http://www.w3.org/2000/svg">
<path d="M7.92578 7C7.37891 7 6.88672 7.13216 6.44922 7.39648C6.01172 7.66081 5.66081 8.01172 5.39648 8.44922C5.13216 8.88672 5 9.37891 5 9.92578C5 10.4544 5.13216 10.9421 5.39648 11.3887C5.66081 11.8353 6.01172 12.1862 6.44922 12.4414C6.88672 12.6966 7.37891 12.8242 7.92578 12.8242C8.45443 12.8242 8.94206 12.6966 9.38867 12.4414C9.83529 12.1862 10.1862 11.8353 10.4414 11.3887C10.6966 10.9421 10.8242 10.4544 10.8242 9.92578C10.8242 9.37891 10.6966 8.88672 10.4414 8.44922C10.1862 8.01172 9.83529 7.66081 9.38867 7.39648C8.94206 7.13216 8.45443 7 7.92578 7ZM8.88281 11.293L7.625 10.0352V8.17578H8.19922V9.78906L9.29297 10.8828L8.88281 11.293ZM8.5 1.75H6.64062C6.51302 1.40365 6.30339 1.12109 6.01172 0.902344C5.72005 0.683594 5.38281 0.574219 5 0.574219C4.61719 0.574219 4.27995 0.683594 3.98828 0.902344C3.69661 1.12109 3.48698 1.40365 3.35938 1.75H1.5C1.17188 1.75 0.89388 1.86393 0.666016 2.0918C0.438151 2.31966 0.324219 2.59766 0.324219 2.92578V11.6758C0.324219 11.9857 0.438151 12.2546 0.666016 12.4824C0.89388 12.7103 1.17188 12.8242 1.5 12.8242H5.05469C4.70833 12.4961 4.4349 12.1133 4.23437 11.6758H1.5V2.92578H2.67578V4.67578H7.32422V2.92578H8.5V5.87891C8.90104 5.93359 9.29297 6.05208 9.67578 6.23438V2.92578C9.67578 2.59766 9.56185 2.31966 9.33398 2.0918C9.10612 1.86393 8.82812 1.75 8.5 1.75ZM5 2.92578C4.83594 2.92578 4.69922 2.86654 4.58984 2.74805C4.48047 2.62956 4.42578 2.48828 4.42578 2.32422C4.42578 2.17839 4.48047 2.04622 4.58984 1.92773C4.69922 1.80924 4.83594 1.75 5 1.75C5.16406 1.75 5.30078 1.80924 5.41016 1.92773C5.51953 2.04622 5.57422 2.17839 5.57422 2.32422C5.57422 2.48828 5.51953 2.62956 5.41016 2.74805C5.30078 2.86654 5.16406 2.92578 5 2.92578Z" fill="#ED1C25"/>
</svg>
