<svg width="14" height="14" viewBox="0 0 14 14" fill="none" xmlns="http://www.w3.org/2000/svg">
<path d="M13.7375 4.9L12.425 3.15088C12.3738 3.08219 12.313 3.02269 12.25 2.96581V0.875C12.25 0.392 11.858 0 11.375 0H2.625C2.14156 0 1.75 0.392 1.75 0.875V2.96625C1.687 3.02269 1.62619 3.08175 1.575 3.15L0.262938 4.89956C0.0931875 5.12531 0 5.40487 0 5.6875V6.125C0 6.84863 0.588875 7.4375 1.3125 7.4375V13.125C1.3125 13.608 1.7045 14 2.1875 14H11.8125C12.2955 14 12.6875 13.608 12.6875 13.125V7.4375C13.4111 7.4375 14 6.84863 14 6.125V5.6875C14 5.40487 13.9068 5.12531 13.7375 4.9ZM11.375 0.875V2.625H2.625V0.875H11.375ZM4.45944 6.5625H2.62675L4.37675 3.5H5.33444L4.45944 6.5625ZM5.78988 3.5H6.78125V6.5625H4.91488L5.78988 3.5ZM7.21875 3.5H8.21012L9.08512 6.5625H7.21875V3.5ZM8.66469 3.5H9.62237L11.3724 6.5625H9.53969L8.66469 3.5ZM0.875 6.125V5.6875C0.875 5.59256 0.905625 5.50069 0.9625 5.425L2.275 3.675C2.35769 3.56475 2.48719 3.5 2.625 3.5H3.87275L2.12275 6.5625H1.3125C1.071 6.5625 0.875 6.36694 0.875 6.125ZM8.75 13.125H5.46875V8.75H8.75V13.125ZM11.8125 13.125H9.1875V8.75C9.1875 8.50806 8.99106 8.3125 8.75 8.3125H5.46875C5.22725 8.3125 5.03125 8.50806 5.03125 8.75V13.125H2.1875V7.4375H11.8125V13.125ZM13.125 6.125C13.125 6.36694 12.9294 6.5625 12.6875 6.5625H11.8764L10.1264 3.5H11.375C11.5124 3.5 11.6423 3.56475 11.7246 3.675L13.0371 5.425C13.0944 5.50069 13.125 5.59256 13.125 5.6875V6.125Z" fill="white"/>
</svg>
