<svg width="11" height="14" viewBox="0 0 11 14" fill="none" xmlns="http://www.w3.org/2000/svg">
<path d="M9.5 14.0179H1.625C1.14156 14.0179 0.75 13.6273 0.75 13.1447V2.60225C0.75 2.12013 1.14156 1.72944 1.625 1.72944H3.8125V2.639H2.0625C1.821 2.639 1.625 2.83413 1.625 3.07563V12.7081C1.625 12.95 1.821 13.1447 2.0625 13.1447H9.0625C9.30444 13.1447 9.5 12.95 9.5 12.7081V3.07563C9.5 2.83413 9.30444 2.639 9.0625 2.639H7.3125V1.72944H9.5C9.983 1.72944 10.375 2.12057 10.375 2.60225V13.1447C10.375 13.6273 9.983 14.0179 9.5 14.0179ZM3.8125 5.25832H8.625V5.69494H3.8125V5.25832ZM3.8125 6.56819H8.625V7.00482H3.8125V6.56819ZM3.8125 7.8785H8.625V8.31513H3.8125V7.8785ZM3.8125 9.18838H8.625V9.625H3.8125V9.18838ZM8.625 12.2439H3.8125V11.8081H8.625V12.2439ZM3.8125 10.4983H8.625V10.9349H3.8125V10.4983ZM2.5 5.24957H2.9375V5.68619H2.5V5.24957ZM2.5 6.55944H2.9375V6.99607H2.5V6.55944ZM2.5 7.86888H2.9375V8.3055H2.5V7.86888ZM2.5 9.17875H2.9375V9.61538H2.5V9.17875ZM2.9375 12.2356H2.5V11.7989H2.9375V12.2356ZM2.5 10.4891H2.9375V10.9257H2.5V10.4891ZM8.1875 3.10232C8.42944 3.10232 8.625 3.29788 8.625 3.53938C8.625 3.78044 8.625 4.38507 8.625 4.38507H2.5C2.5 4.38507 2.5 3.78044 2.5 3.53938C2.5 3.29788 2.69556 3.10232 2.9375 3.10232H4.25C4.25 3.10232 4.25525 2.4815 4.25525 1.77188C4.25525 1.03513 4.824 0.419128 5.5625 0.419128C6.301 0.419128 6.88944 1.06663 6.88944 1.77625C6.88944 2.54057 6.875 3.10232 6.875 3.10232H8.1875ZM5.5625 1.72944C5.32056 1.72944 5.125 1.92457 5.125 2.16563C5.125 2.40713 5.32056 2.60225 5.5625 2.60225C5.80444 2.60225 6 2.40713 6 2.16563C6 1.92457 5.80444 1.72944 5.5625 1.72944Z" fill="#ED1C25"/>
</svg>
