<svg width="12" height="14" viewBox="0 0 12 14" fill="none" xmlns="http://www.w3.org/2000/svg">
<path d="M10.0833 2.91668H1.91667L2.79167 1.75001H9.20834L10.0833 2.91668ZM11.7132 3.14534L9.96667 0.816677C9.85234 0.664427 9.6785 0.583927 9.5 0.583344H2.5C2.30984 0.583344 2.14067 0.674343 2.03334 0.816677L0.286837 3.14534C0.261754 3.17801 0.239587 3.21359 0.222087 3.25151C0.18417 3.33143 0.166087 3.41659 0.16667 3.50001V11.6667C0.16667 12.1497 0.363253 12.5883 0.67942 12.9039C0.995587 13.2195 1.43367 13.4167 1.91667 13.4167H10.0833C10.5663 13.4167 11.005 13.2201 11.3206 12.9039C11.6362 12.5878 11.8333 12.1497 11.8333 11.6667V3.50001C11.8333 3.37226 11.7919 3.25384 11.7231 3.15876C11.7208 3.15584 11.719 3.15293 11.7167 3.15001L11.7132 3.14534ZM1.33334 4.08334H10.6667V11.6667C10.6667 11.8277 10.6019 11.9729 10.4958 12.0791C10.3896 12.1853 10.2443 12.25 10.0833 12.25H1.91667C1.75567 12.25 1.61042 12.1853 1.50425 12.0791C1.39809 11.9729 1.33334 11.8277 1.33334 11.6667V4.08334ZM7.75 5.83334C7.75 6.31693 7.55459 6.75326 7.23725 7.07059C6.91992 7.38793 6.48359 7.58334 6 7.58334C5.51642 7.58334 5.08009 7.38793 4.76275 7.07059C4.44542 6.75326 4.25 6.31693 4.25 5.83334C4.25 5.51134 3.98867 5.25001 3.66667 5.25001C3.34467 5.25001 3.08334 5.51134 3.08334 5.83334C3.08334 6.63834 3.41059 7.36868 3.93734 7.89601C4.46409 8.42334 5.195 8.75001 6 8.75001C6.805 8.75001 7.53534 8.42276 8.06267 7.89601C8.59 7.36926 8.91667 6.63834 8.91667 5.83334C8.91667 5.51134 8.65534 5.25001 8.33334 5.25001C8.01134 5.25001 7.75 5.51134 7.75 5.83334Z" fill="#ED1C25"/>
</svg>
