<svg width="12" height="12" viewBox="0 0 12 12" fill="none" xmlns="http://www.w3.org/2000/svg">
<path d="M4.24999 10.6667H1.91666C1.75566 10.6667 1.61041 10.6019 1.50424 10.4958C1.39807 10.3896 1.33332 10.2443 1.33332 10.0833V1.91667C1.33332 1.75567 1.39807 1.61042 1.50424 1.50426C1.61041 1.39809 1.75566 1.33334 1.91666 1.33334H4.24999C4.57199 1.33334 4.83332 1.07201 4.83332 0.750005C4.83332 0.428005 4.57199 0.166672 4.24999 0.166672H1.91666C1.43366 0.166672 0.99499 0.363255 0.679407 0.679422C0.363823 0.995588 0.166656 1.43367 0.166656 1.91667V10.0833C0.166656 10.5663 0.36324 11.005 0.679407 11.3206C0.995573 11.6362 1.43366 11.8333 1.91666 11.8333H4.24999C4.57199 11.8333 4.83332 11.572 4.83332 11.25C4.83332 10.928 4.57199 10.6667 4.24999 10.6667ZM9.84182 5.41667H4.24999C3.92799 5.41667 3.66666 5.67801 3.66666 6.00001C3.66666 6.32201 3.92799 6.58334 4.24999 6.58334H9.84182L7.92091 8.50426C7.69282 8.73234 7.69282 9.10159 7.92091 9.32909C8.14899 9.55659 8.51824 9.55717 8.74574 9.32909L11.6624 6.41242C11.7161 6.35876 11.7592 6.29459 11.789 6.22342C11.8765 6.01226 11.8345 5.75967 11.6624 5.58759L8.74574 2.67092C8.51766 2.44284 8.14841 2.44284 7.92091 2.67092C7.69341 2.89901 7.69282 3.26826 7.92091 3.49576L9.84182 5.41667Z" fill="#ED1C25"/>
</svg>
